<?xml version="1.0" encoding="utf-8"?>
<!-- Generator: Adobe Illustrator 13.0.2, SVG Export Plug-In . SVG Version: 6.00 Build 14948)  -->
<!DOCTYPE svg PUBLIC "-//W3C//DTD SVG 1.0//EN" "http://www.w3.org/TR/2001/REC-SVG-20010904/DTD/svg10.dtd">
<svg version="1.0"
	 id="svg2" sodipodi:docname="photoshop.svg" inkscape:version="0.46" sodipodi:version="0.32" xmlns:dc="http://purl.org/dc/elements/1.1/" xmlns:cc="http://creativecommons.org/ns#" xmlns:rdf="http://www.w3.org/1999/02/22-rdf-syntax-ns#" xmlns:svg="http://www.w3.org/2000/svg" xmlns:sodipodi="http://sodipodi.sourceforge.net/DTD/sodipodi-0.dtd" xmlns:inkscape="http://www.inkscape.org/namespaces/inkscape" inkscape:output_extension="org.inkscape.output.svg.inkscape"
	 xmlns="http://www.w3.org/2000/svg" xmlns:xlink="http://www.w3.org/1999/xlink" x="0px" y="0px" width="256px" height="256px"
	 viewBox="0 0 256 256" enable-background="new 0 0 256 256" xml:space="preserve">
<defs>
	
	
		<inkscape:perspective  id="perspective10" inkscape:vp_z="744.09448 : 526.18109 : 1" inkscape:vp_y="0 : 1000 : 0" inkscape:vp_x="0 : 526.18109 : 1" sodipodi:type="inkscape:persp3d" inkscape:persp3d-origin="372.04724 : 350.78739 : 1">
		</inkscape:perspective>
	
		<inkscape:perspective  id="perspective2390" inkscape:vp_z="744.09448 : 526.18109 : 1" inkscape:vp_y="0 : 1000 : 0" inkscape:vp_x="0 : 526.18109 : 1" sodipodi:type="inkscape:persp3d" inkscape:persp3d-origin="372.04724 : 350.78739 : 1">
		</inkscape:perspective>
	
		<inkscape:perspective  id="perspective3257" inkscape:vp_z="744.09448 : 526.18109 : 1" inkscape:vp_y="0 : 1000 : 0" inkscape:vp_x="0 : 526.18109 : 1" sodipodi:type="inkscape:persp3d" inkscape:persp3d-origin="372.04724 : 350.78739 : 1">
		</inkscape:perspective>
</defs>
<sodipodi:namedview  id="base" showgrid="false" inkscape:cy="113.47354" inkscape:cx="113.73584" pagecolor="#ffffff" inkscape:zoom="0.98994949" borderopacity="1.0" bordercolor="#666666" inkscape:window-y="-8" inkscape:window-x="1392" inkscape:window-height="748" inkscape:window-width="1024" inkscape:current-layer="layer1" inkscape:document-units="px" inkscape:pageshadow="2" inkscape:pageopacity="0.0">
	</sodipodi:namedview>
<g id="layer1" inkscape:label="Calque 1" inkscape:groupmode="layer">
	
		<linearGradient id="rect2396_1_" gradientUnits="userSpaceOnUse" x1="122.9551" y1="590.8516" x2="378.9551" y2="590.8516" gradientTransform="matrix(0 1 1 0 -462.8516 -122.9551)">
		<stop  offset="0" style="stop-color:#FAA61A"/>
		<stop  offset="1" style="stop-color:#D85C02"/>
	</linearGradient>
	<rect id="rect2396" fill="url(#rect2396_1_)" width="256" height="256"/>
	<g id="flowRoot3186">
	</g>
	<path id="flowRoot3178" fill="#EBEBEB" d="M149.258,175.946c0.439,1.325,0.674,2.395,0.701,3.208
		c0.027,0.813-0.18,1.43-0.619,1.852s-1.169,0.693-2.187,0.813S144.774,182,143.068,182c-1.705,0-3.066-0.045-4.084-0.136
		s-1.787-0.241-2.311-0.452c-0.521-0.211-0.907-0.496-1.154-0.857c-0.248-0.361-0.481-0.813-0.701-1.355l-9.159-28.461H81.268
		l-8.746,28.1c-0.165,0.542-0.385,1.009-0.66,1.4s-0.674,0.723-1.196,0.994c-0.522,0.271-1.265,0.467-2.228,0.587
		c-0.962,0.12-2.214,0.181-3.754,0.181c-1.595,0-2.902-0.075-3.919-0.227c-1.018-0.15-1.733-0.436-2.146-0.857
		s-0.605-1.039-0.577-1.853c0.027-0.813,0.261-1.882,0.701-3.208l35.81-108.603c0.22-0.662,0.509-1.205,0.867-1.626
		c0.357-0.422,0.88-0.753,1.567-0.994c0.688-0.241,1.568-0.406,2.641-0.497S102.061,64,103.711,64c1.76,0,3.218,0.045,4.373,0.136
		c1.155,0.09,2.09,0.256,2.805,0.497c0.715,0.241,1.265,0.587,1.65,1.039c0.385,0.452,0.688,1.009,0.908,1.671L149.258,175.946z
		 M103.299,80.083h-0.083l-18.4,58.277h37.13L103.299,80.083z"/>
	<path id="flowRoot3194" fill="#EBEBEB" d="M180.324,179.256c0,0.473-0.118,0.871-0.354,1.195s-0.617,0.604-1.146,0.841
		c-0.53,0.235-1.266,0.413-2.207,0.53C175.676,181.941,174.471,182,173,182c-1.412,0-2.588-0.059-3.529-0.178
		c-0.941-0.117-1.691-0.295-2.25-0.53c-0.559-0.236-0.941-0.517-1.146-0.841c-0.207-0.324-0.31-0.723-0.31-1.195v-79.67
		c0-0.413,0.103-0.797,0.31-1.151c0.205-0.354,0.588-0.649,1.146-0.885c0.559-0.236,1.309-0.413,2.25-0.531
		c0.941-0.118,2.117-0.177,3.529-0.177c1.471,0,2.676,0.059,3.617,0.177c0.941,0.118,1.677,0.295,2.207,0.531
		c0.529,0.236,0.911,0.531,1.146,0.885s0.354,0.738,0.354,1.151V179.256z M182,72.675c0,3.423-0.646,5.754-1.941,6.993
		c-1.294,1.239-3.676,1.859-7.146,1.859c-3.412,0-5.75-0.604-7.016-1.814c-1.264-1.21-1.896-3.497-1.896-6.861
		c0-3.422,0.646-5.753,1.941-6.993c1.294-1.239,3.676-1.859,7.146-1.859c3.412,0,5.75,0.605,7.016,1.814
		C181.367,67.024,182,69.312,182,72.675L182,72.675z"/>
</g>
</svg>
